{
  "accessors": [
    {
      "name": "Box2131663803_1_0_positions",
      "componentType": 5126,
      "count": 20183,
      "min": [
        4569.26025390625,
        -0.07810000330209732,
        -2003.2467041015625
      ],
      "max": [
        4635.1337890625,
        87.72789764404297,
        -1937.6976318359375
      ],
      "type": "VEC3",
      "bufferView": 0,
      "byteOffset": 0
    },
    {
      "name": "Box2131663803_1_0_normals",
      "componentType": 5126,
      "count": 20183,
      "min": [
        -0.999826967716217,
        -1,
        -0.9999877214431763
      ],
      "max": [
        0.999825119972229,
        1,
        0.999992311000824
      ],
      "type": "VEC3",
      "bufferView": 1,
      "byteOffset": 0
    },
    {
      "name": "Box2131663803_1_0_texcoords",
      "componentType": 5126,
      "count": 20183,
      "min": [
        -21.100900650024414,
        -22.32040023803711
      ],
      "max": [
        17.618600845336914,
        23.36479949951172
      ],
      "type": "VEC2",
      "bufferView": 2,
      "byteOffset": 0
    },
    {
      "name": "Box2131663803_1_0_indices",
      "componentType": 5123,
      "count": 112974,
      "min": [
        0
      ],
      "max": [
        20182
      ],
      "type": "SCALAR",
      "bufferView": 3,
      "byteOffset": 0
    }
  ],
  "asset": {
    "generator": "obj2gltf",
    "version": "2.0"
  },
  "buffers": [
    {
      "name": "WOOD AND METAL CHAIR 2",
      "byteLength": 871804,
      "uri": "data:application/octet-stream;base64,"
    }
  ],
  "bufferViews": [
    {
      "name": "bufferView_0",
      "buffer": 0,
      "byteLength": 242196,
      "byteOffset": 0,
      "byteStride": 12,
      "target": 34962
    },
    {
      "name": "bufferView_1",
      "buffer": 0,
      "byteLength": 242196,
      "byteOffset": 242196,
      "byteStride": 12,
      "target": 34962
    },
    {
      "name": "bufferView_2",
      "buffer": 0,
      "byteLength": 161464,
      "byteOffset": 484392,
      "byteStride": 8,
      "target": 34962
    },
    {
      "name": "bufferView_3",
      "buffer": 0,
      "byteLength": 225948,
      "byteOffset": 645856,
      "target": 34963
    }
  ],
  "materials": [
    {
      "name": "wire_085028177",
      "pbrMetallicRoughness": {
        "baseColorFactor": [
          0.3333,
          0.1098,
          0.6941,
          1
        ],
        "metallicFactor": 0,
        "roughnessFactor": 0.968
      },
      "emissiveFactor": [
        0,
        0,
        0
      ],
      "alphaMode": "OPAQUE",
      "doubleSided": false
    }
  ],
  "meshes": [
    {
      "name": "Box2131663803_1",
      "primitives": [
        {
          "attributes": {
            "POSITION": 0,
            "NORMAL": 1,
            "TEXCOORD_0": 2
          },
          "indices": 3,
          "material": 0,
          "mode": 4
        }
      ]
    }
  ],
  "nodes": [
    {
      "name": "Box2131663803",
      "mesh": 0
    }
  ],
  "scene": 0,
  "scenes": [
    {
      "nodes": [
        0
      ]
    }
  ]
}
